<svg style="display: none"  xmlns="http://www.w3.org/2000/svg">
  <symbol id="vkontakte" viewBox="0 0 30 22" fill="none">
    <path
      d="M.1 5.49c0-.86.54-1.32 1.65-1.38L6 4.13c.29 0 .48.13.57.38.44 1.26.93 2.34 1.47 3.26.54.9 1.25 1.96 2.13 3.15.07.15.2.23.37.23.13 0 .24-.06.31-.18l.09-.27.03-4.36c0-.3-.08-.5-.25-.6-.16-.1-.46-.17-.9-.23-.34-.05-.5-.23-.5-.55 0-.07 0-.12.02-.15.4-1.09 1.54-1.63 3.43-1.63l1.6-.03c.72 0 1.32.16 1.8.48.47.32.7.82.7 1.5v5.72a.7.7 0 00.38.12c.28 0 .53-.15.74-.45 2.1-2.58 3.23-4.3 3.4-5.18l.05-.13c.14-.25.36-.47.66-.65.3-.19.57-.31.8-.38a.63.63 0 01.26-.05h4.42l.29.03a1 1 0 01.88.47c.08.1.13.21.16.33a2.26 2.26 0 01.07.55v.18a5.9 5.9 0 01-1.01 2.2c-.55.78-1.24 1.62-2.07 2.53-.84.9-1.36 1.5-1.57 1.78-.17.2-.26.39-.26.56 0 .13.08.28.23.45l4.17 4.63c.22.27.34.56.34.88 0 .38-.17.7-.51.95-.35.25-.76.4-1.23.43l-.49.03h-4.45l-.11.02c-.42 0-.81-.16-1.18-.48l-2.68-2.96c-.1-.12-.23-.23-.4-.33l-.3 1.16-.27 1.08-.09.42c-.19.6-.58.94-1.2 1.06l-.4.03h-2.8c-1.57 0-3.15-.64-4.72-1.92a19.62 19.62 0 01-4.23-4.94A46.12 46.12 0 01.23 6.22a1.8 1.8 0 01-.14-.73zM17.24 12c-.4 0-.76-.1-1.09-.29-.32-.19-.48-.45-.48-.79V5.14c0-.34-.1-.58-.29-.72-.19-.14-.52-.21-1-.21l-1.62.05c-.82 0-1.44.12-1.86.37.84.36 1.26.93 1.26 1.71v4.43c-.04.42-.23.77-.57 1.04-.35.28-.73.42-1.15.42-.57 0-1-.24-1.3-.73a25.68 25.68 0 01-3.32-5.63l-.26-.66-3.8-.02c-.24 0-.38.01-.4.04-.04.02-.05.1-.05.2 0 .16.02.32.06.49l.6 1.4c1.6 3.64 3.33 6.51 5.2 8.6 1.88 2.1 3.72 3.15 5.53 3.15h2.85c.12 0 .2-.03.26-.09s.1-.17.14-.34l.06-.25.54-2.21c.15-.3.29-.5.4-.6.21-.2.46-.28.74-.28.46 0 .93.24 1.4.73l2.43 2.71c.15.22.31.33.48.33h4.72c.57 0 .85-.13.85-.38a.44.44 0 00-.08-.25l-4.14-4.55a1.65 1.65 0 01-.49-1.13c0-.4.15-.8.46-1.16.25-.33.73-.9 1.44-1.67.71-.78 1.34-1.51 1.87-2.19.53-.68.88-1.3 1.06-1.85l.08-.32a.35.35 0 01-.03-.17c0-.07 0-.14-.03-.19h-4.48c-.28.1-.51.25-.68.46l-.17.47c-.48 1.16-1.73 2.95-3.74 5.36-.4.34-.87.5-1.4.5z"
      fill="currentColor" />
  </symbol>
  <symbol id="instagram" viewBox="0 0 23 23" fill="none">
    <path
      d="M11.48.09c1.91 0 3.48.02 4.7.07 1.03.04 1.95.22 2.75.54a5.73 5.73 0 013.33 3.32c.31.8.5 1.73.54 2.76.04 1.22.07 2.78.07 4.7 0 1.91-.03 3.48-.07 4.7a8.63 8.63 0 01-.54 2.75 5.73 5.73 0 01-3.33 3.33c-.8.31-1.72.5-2.76.54-1.21.04-2.78.07-4.7.07-1.9 0-3.47-.03-4.69-.07a8.63 8.63 0 01-2.76-.54A5.73 5.73 0 01.7 18.93c-.32-.8-.5-1.72-.54-2.76-.05-1.21-.07-2.78-.07-4.7 0-1.9.02-3.47.07-4.69C.2 5.75.38 4.83.7 4.02A5.73 5.73 0 014.02.7C4.82.38 5.75.2 6.78.16 8 .1 9.56.09 11.48.09zm0 1.48c-2 0-3.62.02-4.88.07-.8.03-1.55.17-2.24.43a4.1 4.1 0 00-2.3 2.29c-.25.69-.39 1.43-.42 2.24-.05 1.26-.07 2.89-.07 4.88 0 1.99.02 3.61.07 4.87.03.81.17 1.56.43 2.25a4.1 4.1 0 002.29 2.29c.69.25 1.43.4 2.24.43 1.26.04 2.89.06 4.88.06 1.99 0 3.61-.02 4.87-.06.81-.03 1.56-.18 2.25-.43a4.1 4.1 0 002.29-2.3c.25-.68.4-1.43.43-2.24.04-1.26.06-2.88.06-4.87 0-2-.02-3.62-.06-4.88a7.21 7.21 0 00-.43-2.24 4.1 4.1 0 00-2.3-2.3 7.21 7.21 0 00-2.24-.42c-1.26-.05-2.88-.07-4.87-.07zm0 14.47a4.4 4.4 0 003.22-1.34 4.4 4.4 0 001.34-3.22 4.4 4.4 0 00-1.34-3.23 4.4 4.4 0 00-3.22-1.33 4.4 4.4 0 00-3.23 1.33 4.4 4.4 0 00-1.33 3.23 4.4 4.4 0 001.33 3.22 4.4 4.4 0 003.23 1.34zm0-10.4c1.61 0 3 .57 4.13 1.7a5.63 5.63 0 011.7 4.14c0 1.61-.56 3-1.7 4.13a5.63 5.63 0 01-4.13 1.7c-1.62 0-3-.56-4.14-1.7a5.63 5.63 0 01-1.7-4.13c0-1.62.57-3 1.7-4.14a5.63 5.63 0 014.14-1.7zm7.45-.23a1.36 1.36 0 01-1.4 1.35c-.36 0-.68-.13-.94-.4a1.3 1.3 0 01-.4-.95 1.36 1.36 0 011.35-1.39c.38 0 .7.14.98.42.28.27.41.6.41.97z"
      fill="currentColor" />
  </symbol>
  <symbol id="facebook" viewBox="0 0 28 33" fill="none">
    <path
      d="M21 2.75h-3.5c-1.55 0-3.03.71-4.12 1.97a7.3 7.3 0 00-1.71 4.77v4.05h-3.5v5.39h3.5v10.79h4.66v-10.8h3.5L21 13.55h-4.67V9.49c0-.36.13-.7.35-.95.21-.25.51-.4.82-.4H21V2.75z"
      stroke="currentColor" stroke-width="1.1" stroke-linecap="round" stroke-linejoin="round" />
  </symbol>
  <symbol id="html-academy" viewBox="0 0 27 34" fill="none">
    <path d="M13.64.02L13.5 0 0 1.4v24.61L13.5 34 27 26.01V1.41L13.64 0zm11.6 25L13.5 31.96 1.77 25.02v-10.1l11.68 6.93.02 1.25-8.02-4.75v1.23l8.04 4.8.02 1.3-8.05-4.76v1.22l8.04 4.81 8.12-4.83V16.9l3.62-2.15v10.26zm0-11.57L22 15.33l-1.48.88-7.06-4.19-.01 1.23 6.04 3.57-.06.03-.13.07-.86.5-4.98-2.95-.01 1.22 3.93 2.33-.93.61-.02.01-2.97-1.74-.01 1.23 1.94 1.13-1.98 1.19L1.8 13.58l11.63-6.96 11.8 6.83zm0-1.22L13.43 5.3 1.77 12.22V2.99L13.5 1.76 25.23 3v9.24z" fill="currentColor"/>
  </symbol>
  <symbol id="rectangle" viewBox="0 0 60 60" fill="none">
    <path fill="#68B738" d="M0 0h60v60H0z"/>
  </symbol>
  <symbol id="leaf" width="60" height="60" viewBox="0 0 60 60" fill="none">
    <path d="M42.8 16.8a1 1 0 00-.9-.8c-5 0-17 1-21.8 8.4-2.5 3.9-2.7 8.9-.6 15-.7 2-1 3.4-1 3.4 0 .5.2 1 .7 1.2h.2a1 1 0 001-.8s2.4-10.4 10.8-16.4c.4-.3.6-.9.3-1.4a.9.9 0 00-1.3-.2 30 30 0 00-9.5 11.6c-1.3-4.6-1-8.4 1-11.3 3.7-5.7 12.6-7.1 18-7.4A20 20 0 0037.2 29c0 3.1-.8 5.5-2.4 7.1-2.6 2.6-6.9 2.9-10 2.6-.5 0-1 .4-1 1 0 .5.3 1 .8 1l2 .1c3.2 0 6.9-.7 9.5-3.2 2-2 3-4.9 3-8.6 0-9.1 3.2-11 3.3-11.1.3-.2.5-.7.4-1.1z" fill="#fff"/>
  </symbol>
  <symbol id="glass" width="60" height="60" viewBox="0 0 60 60" fill="#fff">
    <path d="M35.78 31.47c-1.71 0-3.1 1.48-3.1 3.3 0 1.83 1.4 3.3 3.1 3.3 1.7 0 3.08-1.47 3.08-3.3 0-1.82-1.38-3.3-3.08-3.3zm0 5.02c-.89 0-1.6-.77-1.6-1.71 0-.95.71-1.72 1.6-1.72.88 0 1.6.77 1.6 1.72 0 .94-.72 1.7-1.6 1.7zM26.6 12.99c-1.75 0-3.18 1.52-3.18 3.4 0 1.89 1.43 3.41 3.19 3.41s3.18-1.52 3.18-3.4c0-1.89-1.42-3.41-3.18-3.41zm0 5.48c-1.06 0-1.93-.93-1.93-2.07 0-1.15.87-2.07 1.94-2.07 1.07 0 1.93.92 1.93 2.07 0 1.14-.86 2.07-1.93 2.07zM23.23 30.61c-1.3 0-2.34 1.12-2.34 2.5 0 1.39 1.04 2.5 2.34 2.5 1.3 0 2.34-1.11 2.34-2.5 0-1.38-1.05-2.5-2.34-2.5zM23 32.5c-.46 0 1.16 1.1 1.16.61 0-.49-1.62.39-1.16.39.46 0 1.06-.88 1.06-.39 0 .5-.6-.61-1.06-.61zM33.5 22.76s3.04-.84 6.18 1.5c.9.76 1.76 1.33 1.15 2.12-.34.34-.64.66-1.72-.53a6.92 6.92 0 00-5.61-1.44c-1.13.24-1.96.55-3.56 2.15a8.27 8.27 0 01-6.5 2.5c-2.52-.24-3.84-1.27-5.24-2.55-.3-.42-.3-.87-.12-1.13.17-.26.83-.52 1.2-.13.37.4 2.1 1.97 3.82 2.07 1.72.1 3.44.21 5.74-1.96 2.3-2.18 3.46-2.34 4.66-2.6z"/>
    <path d="M43.65 39.82V21.16c0-.58-.38-.65-.53-.66h-.5c-.5 0-.54.56-.54.74V39.84a2.68 2.68 0 01-.82 1.89c-.81.7-1.62.6-1.62.6s-20.18 0-20.66-.03a2.3 2.3 0 01-1.6-1c-.57-.8-.46-1.85-.46-1.85V21.3c0-.83-.67-.8-.67-.8h-.3c-.54 0-.6.58-.6.77v18.54c0 1.33.46 2.4 1.55 3.33 1.1.94 2.38.86 2.38.86h20.58c.86 0 1.98-.42 2.91-1.56.93-1.14.88-2.63.88-2.63z"/>
    <path d="M43.65 39.82V21.16c0-.58-.38-.65-.53-.66h-.5c-.5 0-.54.56-.54.74V39.84a2.68 2.68 0 01-.82 1.89c-.81.7-1.62.6-1.62.6s-20.18 0-20.66-.03a2.3 2.3 0 01-1.6-1c-.57-.8-.46-1.85-.46-1.85V21.3c0-.83-.67-.8-.67-.8h-.3c-.54 0-.6.58-.6.77v18.54c0 1.33.46 2.4 1.55 3.33 1.1.94 2.38.86 2.38.86h20.58c.86 0 1.98-.42 2.91-1.56.93-1.14.88-2.63.88-2.63z"/>
  </symbol>
  <symbol id="cutlery" width="60" height="60" viewBox="0 0 60 60" fill="none">
    <path fill-rule="evenodd" clip-rule="evenodd" d="M36.6 15c.4 0 .8 0 1.1.3 1 .9 2.1 2.9 3 6 1 3 1.8 7.2 1.8 12.7 0 .6-.4 1-1 1H38v9a1 1 0 11-2 0V16c0-.4.2-.8.6-1zM38 33h2.5A39.6 39.6 0 0038 19.5V33zM24 15c.6 0 1 .4 1 1v28a1 1 0 11-2 0V16c0-.6.4-1 1-1z" fill="#fff"/>
    <path fill-rule="evenodd" clip-rule="evenodd" d="M19.5 15c.6 0 1 .4 1 1v5.5c0 .6.2 1.3.7 2 .5.5 1.3 1 2.8 1a1 1 0 110 2c-2 0-3.4-.7-4.3-1.8a5 5 0 01-1.2-3.2V16c0-.6.4-1 1-1z" fill="#fff"/>
    <path fill-rule="evenodd" clip-rule="evenodd" d="M28.5 15a1 1 0 00-1 1v5.5a3 3 0 01-.7 2c-.5.5-1.3 1-2.8 1a1 1 0 000 2c2 0 3.4-.7 4.3-1.8a5 5 0 001.2-3.2V16c0-.6-.4-1-1-1z" fill="#fff"/>
  </symbol>
  <symbol id="alarm" width="60" height="60" viewBox="0 0 60 60" fill="none">
    <circle cx="35.2" cy="24.33" fill="#fff" r="1.09"/>
    <circle cx="24.33" cy="24.33" fill="#fff" r="1.09"/>
    <circle cx="24.33" cy="37.35" fill="#fff" r="1.09"/>
    <circle cx="29.77" cy="39.52" fill="#fff" r="1.09"/>
    <circle cx="21.07" cy="30.77" fill="#fff" r="1.09"/>
    <circle cx="38.47" cy="30.77" fill="#fff" r="1.09"/>
    <circle cx="35.2" cy="37.35" fill="#fff" r="1.09"/>
    <path fill-rule="evenodd" clip-rule="evenodd" d="M34.92 42.06c.41-.2.9-.13 1.22.2l1.82 1.87a.68.68 0 00.98-.95l-1.36-1.4c-.42-.43-.36-1.14.1-1.55A12.75 12.75 0 0042 30.61C42 23.65 36.52 18 29.77 18 23 18 17.54 23.65 17.54 30.61c0 3.82 1.64 7.24 4.23 9.55.45.4.51 1.11.1 1.55l-1.44 1.47a.68.68 0 10.97.95l1.88-1.93c.32-.33.82-.4 1.23-.2a11.88 11.88 0 0010.41.06zm-5.15-.23c6 0 10.87-5.02 10.87-11.22 0-6.19-4.87-11.2-10.87-11.2-6 0-10.88 5.01-10.88 11.2 0 6.2 4.87 11.22 10.88 11.22zM29 30.3V22.94a.78.78 0 111.56 0v8.18a.8.8 0 01-.8.8.76.76 0 01-.76-.75V30.3z"/>
    <path fill-rule="evenodd" clip-rule="evenodd" d="M34.92 42.06c.41-.2.9-.13 1.22.2l1.82 1.87a.68.68 0 00.98-.95l-1.36-1.4c-.42-.43-.36-1.14.1-1.55A12.75 12.75 0 0042 30.61C42 23.65 36.52 18 29.77 18 23 18 17.54 23.65 17.54 30.61c0 3.82 1.64 7.24 4.23 9.55.45.4.51 1.11.1 1.55l-1.44 1.47a.68.68 0 10.97.95l1.88-1.93c.32-.33.82-.4 1.23-.2a11.88 11.88 0 0010.41.06zm-5.15-.23c6 0 10.87-5.02 10.87-11.22 0-6.19-4.87-11.2-10.87-11.2-6 0-10.88 5.01-10.88 11.2 0 6.2 4.87 11.22 10.88 11.22zM29 30.3V22.94a.78.78 0 111.56 0v8.18a.8.8 0 01-.8.8.76.76 0 01-.76-.75V30.3z" fill="#fff"/>
    <path fill="#fff" d="M29 19v-4h1.5v4z"/>
    <rect x="22" y="15" width="15.5" height="1.5" rx=".75" fill="#fff"/>
  </symbol>
</svg>
